<svg xmlns="http://www.w3.org/2000/svg" xmlns:xlink="http://www.w3.org/1999/xlink" viewBox="0 0 32 32">
  <path fill="#fff" d="M0 0h32v32h-32v-32z"></path>
  <path fill="#000" d="M30.57 12.022l-0.004-0.005c-0.421-0.496-0.988-0.864-1.657-1.043h1.661v1.047zM27.261 10.974l-0.023 0.005c-0.677 0.182-1.267 0.578-1.699 1.116v-1.121h1.722zM30.57 16.232v3.957c0 0 0.554 6.109-4.486 7.517 0 0-3.577 1.091-5.88-1.091 0 0-4.001 3.061-7.911 0.273 0 0-2.622-1.879-2.743-4.941v-4.486c0 0 0.076-1.516-1.318-1.697v-3.94c0 0 1.667-0.455 1.273-1.97 0 0-0.243-1.061-1.334-1.122 0 0-0.758 0-0.97 0.394v11.669h-5.789v-16.852h7.335c0 0 5.274-0.243 6.001 4.668 0 0 0.364 3.455-1.394 4.243 0 0 1.354 0.97 1.293 2.97v5.698c0 0.77 0.665 1.394 1.435 1.394v0c0 0 0 0 0 0 0.77 0 1.394-0.624 1.394-1.394 0-0 0-0 0-0v-10.518h5.274v10.517c0 0.77 0.624 1.394 1.394 1.394s1.394-0.624 1.394-1.394v-5.365c0.597 0.747 1.515 1.227 2.546 1.227 0.996 0 1.888-0.448 2.486-1.153z"></path>
</svg>